<svg width="40" height="40" viewBox="0 0 40 40" fill="none"
  xmlns="http://www.w3.org/2000/svg">
  <circle cx="20" cy="20" r="20" fill="#1F2329"/>
  <path fill-rule="evenodd" clip-rule="evenodd" d="M20.9783 12.9974C21.5552 12.6706 22.2383 12.5865 22.8773 12.7634C23.1607 12.8418 23.4028 12.9785 23.631 13.1328C23.8477 13.2794 24.0963 13.4735 24.3844 13.6984L24.4265 13.7312C24.7146 13.9561 24.9633 14.1502 25.1581 14.3249C25.3632 14.5088 25.5546 14.7104 25.6994 14.9663C26.0262 15.5432 26.1104 16.2263 25.9334 16.8653C25.855 17.1486 25.7184 17.3907 25.564 17.6189C25.4174 17.8357 25.2233 18.0843 24.9984 18.3725L19.0794 25.9552C19.0645 25.9744 19.0497 25.9933 19.0351 26.012C18.7572 26.3683 18.5471 26.6377 18.2871 26.8589C18.067 27.0461 17.8234 27.204 17.5626 27.3284C17.2545 27.4754 16.9228 27.5572 16.4841 27.6653C16.4611 27.671 16.4378 27.6767 16.4142 27.6825L14.6435 28.1197C14.5208 28.15 14.3809 28.1846 14.2574 28.2036C14.1197 28.2247 13.9066 28.2439 13.6712 28.1685C13.3882 28.0779 13.1467 27.8894 12.9901 27.6369C12.8598 27.4268 12.8267 27.2154 12.8138 27.0767C12.8022 26.9523 12.8018 26.8081 12.8014 26.6818C12.8014 26.674 12.8014 26.6662 12.8014 26.6586L12.7956 24.858C12.7956 24.8337 12.7955 24.8097 12.7954 24.786C12.7938 24.3341 12.7925 23.9925 12.8604 23.6579C12.9178 23.3747 13.0117 23.1001 13.1399 22.8411C13.2914 22.5351 13.5017 22.2659 13.7799 21.9099C13.7945 21.8912 13.8093 21.8723 13.8242 21.8531L19.7432 14.2703C19.9681 13.9822 20.1622 13.7335 20.3369 13.5387C20.5208 13.3336 20.7225 13.1423 20.9783 12.9974ZM22.4326 14.3696C22.2196 14.3106 21.9919 14.3387 21.7996 14.4476C21.767 14.4661 21.7049 14.5095 21.5778 14.6513C21.4457 14.7987 21.2866 15.0018 21.0406 15.3169L23.6682 17.3679C23.9141 17.0529 24.0726 16.8492 24.1835 16.6852C24.2901 16.5275 24.3172 16.4568 24.3272 16.4206C24.3862 16.2076 24.3581 15.9799 24.2492 15.7876C24.2307 15.7549 24.1873 15.6929 24.0455 15.5658C23.8981 15.4337 23.695 15.2745 23.3799 15.0286C23.0649 14.7827 22.8612 14.6243 22.6972 14.5134C22.5395 14.4067 22.4688 14.3796 22.4326 14.3696ZM22.6427 18.6817L20.0151 16.6307L15.138 22.8786C14.7966 23.3161 14.7003 23.4459 14.6336 23.5805C14.5695 23.71 14.5225 23.8473 14.4938 23.9889C14.464 24.1362 14.4605 24.2977 14.4623 24.8527L14.4674 26.4464L16.0147 26.0644C16.5534 25.9314 16.7093 25.8889 16.8449 25.8242C16.9754 25.7619 17.0971 25.683 17.2072 25.5894C17.3216 25.4921 17.4242 25.3671 17.7656 24.9297L22.6427 18.6817ZM20 27.5001C20 27.0398 20.3731 26.6667 20.8334 26.6667H26.6667C27.1269 26.6667 27.5 27.0398 27.5 27.5001C27.5 27.9603 27.1269 28.3334 26.6667 28.3334H20.8334C20.3731 28.3334 20 27.9603 20 27.5001Z" fill="white"/>
</svg>
