<svg width="19" height="18" viewBox="0 0 19 18" fill="none" xmlns="http://www.w3.org/2000/svg">
<path fill-rule="evenodd" clip-rule="evenodd" d="M9.66654 0C9.93176 0 10.1861 0.105357 10.3736 0.292893L14.3736 4.29289C14.7642 4.68342 14.7642 5.31658 14.3736 5.70711C13.9831 6.09763 13.35 6.09763 12.9594 5.70711L10.6665 3.41421L10.6665 12C10.6665 12.5523 10.2188 13 9.66654 13C9.11426 13 8.66654 12.5523 8.66654 12L8.66654 3.41421L6.37365 5.70711C5.98312 6.09763 5.34996 6.09763 4.95943 5.70711C4.56891 5.31658 4.56891 4.68342 4.95943 4.29289L8.95943 0.292893C9.14697 0.105357 9.40133 0 9.66654 0ZM1.66654 11C2.21883 11 2.66654 11.4477 2.66654 12C2.66654 12.9772 2.67138 13.3198 2.72419 13.5853C2.96091 14.7753 3.8912 15.7056 5.08127 15.9424C5.34672 15.9952 5.6893 16 6.66654 16H12.6665C13.6438 16 13.9864 15.9952 14.2518 15.9424C15.4419 15.7056 16.3722 14.7753 16.6089 13.5853C16.6617 13.3198 16.6665 12.9772 16.6665 12C16.6665 11.4477 17.1143 11 17.6665 11C18.2188 11 18.6665 11.4477 18.6665 12C18.6665 12.0392 18.6665 12.0777 18.6666 12.1157C18.6668 12.9334 18.6669 13.4906 18.5705 13.9755C18.1759 15.9589 16.6254 17.5094 14.642 17.9039C14.1572 18.0004 13.5999 18.0002 12.7823 18C12.7443 18 12.7057 18 12.6665 18H6.66654C6.62737 18 6.58879 18 6.55076 18C5.73317 18.0002 5.17589 18.0004 4.69109 17.9039C2.70764 17.5094 1.15715 15.9589 0.762615 13.9755C0.666181 13.4906 0.666319 12.9334 0.666522 12.1158C0.666531 12.0777 0.666541 12.0392 0.666541 12C0.666541 11.4477 1.11426 11 1.66654 11Z" fill="#353535"/>
</svg>
